<svg xmlns="http://www.w3.org/2000/svg" viewBox="4111 3026 45 45">
  <defs>
    <style>
      .cls-1 {
        fill: #fff;
      }
    </style>
  </defs>
  <g id="Group_133" data-name="Group 133" transform="translate(2336 2947)">
    <path id="Path_31" data-name="Path 31" class="cls-1" d="M38.409,6.591A22.5,22.5,0,1,0,6.591,38.409,22.5,22.5,0,1,0,38.409,6.591ZM36.6,36.6A19.941,19.941,0,0,1,8.4,8.4,19.941,19.941,0,1,1,36.6,36.6Z" transform="translate(1775 79)"/>
    <path id="Path_32" data-name="Path 32" class="cls-1" d="M149.131,129.3a1.275,1.275,0,0,0-1.809,0l-8.106,8.106L131.11,129.3a1.279,1.279,0,0,0-1.809,1.809l8.106,8.106-8.106,8.106a1.283,1.283,0,0,0,.9,2.188,1.247,1.247,0,0,0,.9-.379l8.106-8.106,8.106,8.106a1.287,1.287,0,0,0,.9.379,1.232,1.232,0,0,0,.9-.379,1.275,1.275,0,0,0,0-1.809l-8.087-8.106,8.106-8.106A1.275,1.275,0,0,0,149.131,129.3Z" transform="translate(1658.284 -37.716)"/>
  </g>
</svg>
