<svg xmlns="http://www.w3.org/2000/svg" viewBox="9082 1753 566.9 150.857">
  <defs>
    <style>
      .cls-1 {
        fill: #fff;
      }
    </style>
  </defs>
  <g id="logo" transform="translate(9082.1 1753.058)">
    <g id="Group_95" data-name="Group 95">
      <g id="Group_94" data-name="Group 94">
        <path id="Path_333" data-name="Path 333" class="cls-1" d="M109.6,130.6a19.774,19.774,0,0,1,20.2-20.2c6.9,0,12.4,2.7,15.7,7.8l-4.8,3.3a12.865,12.865,0,0,0-11.2-5.7c-8.1,0-13.9,6.3-13.9,14.8,0,8.4,5.7,14.8,13.9,14.8,5.4,0,9-2.4,11.8-6.3l4.8,3.3c-3.3,5.1-9,8.4-16.3,8.4A19.894,19.894,0,0,1,109.6,130.6Z"/>
        <path id="Path_334" data-name="Path 334" class="cls-1" d="M155.5,130.6c0-11.8,9-20.2,20.5-20.2a20.2,20.2,0,0,1,0,40.4C164.5,150.8,155.5,142.3,155.5,130.6Zm34.3,0c0-8.4-5.7-14.8-14.2-14.8-8.1,0-14.2,6.3-14.2,14.8s5.7,14.8,14.2,14.8S189.8,139,189.8,130.6Z"/>
        <path id="Path_335" data-name="Path 335" class="cls-1" d="M217.3,127.3c-1.5-1.8-3.6-4.5-3.6-4.5s.3,3.3.3,5.7v21.7h-5.7V110.4h.9l21.7,23.5a43.749,43.749,0,0,1,3.6,4.5s-.3-3.6-.3-5.7V111h5.7v39.8H239Z"/>
        <path id="Path_336" data-name="Path 336" class="cls-1" d="M262.8,127.3c-1.5-1.8-3.6-4.5-3.6-4.5s.3,3.3.3,5.7v21.7h-5.7V110.4h.9l21.7,23.5a43.749,43.749,0,0,1,3.6,4.5s-.3-3.6-.3-5.7V111h5.7v39.8h-.9Z"/>
        <path id="Path_337" data-name="Path 337" class="cls-1" d="M299,110.7h25v5.4H305v15.4h16.9v5.4H305v7.8h19.6v5.4H298.7V110.6h.3Z"/>
        <path id="Path_338" data-name="Path 338" class="cls-1" d="M335.5,130.6a19.774,19.774,0,0,1,20.2-20.2c6.9,0,12.4,2.7,15.7,7.8l-4.8,3.3a12.865,12.865,0,0,0-11.2-5.7c-8.1,0-13.9,6.3-13.9,14.8,0,8.4,5.7,14.8,13.9,14.8,5.4,0,9-2.4,11.8-6.3l4.8,3.3c-3.3,5.1-9,8.4-16.3,8.4A19.834,19.834,0,0,1,335.5,130.6Z"/>
        <path id="Path_339" data-name="Path 339" class="cls-1" d="M391.8,116.1H380v-5.4h29.5v5.4H397.7v34.1h-6l.1-34.1Z"/>
      </g>
    </g>
    <g id="Group_97" data-name="Group 97">
      <g id="Group_96" data-name="Group 96">
        <path id="Path_340" data-name="Path 340" class="cls-1" d="M48.4,68.5c-4.8,9-13.6,14.8-23.2,14.8A25.458,25.458,0,0,1-.1,58c0-13.9,11.2-25,25.9-25,6.6,0,13.3,2.1,17.8,5.4v9.3a29.83,29.83,0,0,0-17.5-6.3C15.8,41.4,8.9,48.9,8.9,58c0,9.3,7.5,16.9,16.3,16.9,6.3,0,12.1-4.2,15.4-10.3Z"/>
        <path id="Path_341" data-name="Path 341" class="cls-1" d="M76.8,42.2A20.5,20.5,0,1,1,56,62.7,20.53,20.53,0,0,1,76.8,42.2Zm0,32.9c6.6,0,12.1-5.7,12.1-12.7S83.5,49.7,76.8,49.7,64.7,55.4,64.7,62.4C64.7,69.7,70.1,75.1,76.8,75.1Z"/>
        <path id="Path_342" data-name="Path 342" class="cls-1" d="M105.7,42.2l26.5,21.4V42.8h8.4V82.3h-8.4V73.9L114.4,59.4V82.3h-8.7Z"/>
        <path id="Path_343" data-name="Path 343" class="cls-1" d="M189.5,71.2c-3.9,6.9-10.9,12.1-18.7,12.1a20.464,20.464,0,0,1-20.5-20.5c0-11.2,9-20.5,21.1-20.5a26.956,26.956,0,0,1,14.8,4.5v8.7A21.709,21.709,0,0,0,172,50.1c-7.8,0-13,5.7-13,12.4,0,6.9,5.4,12.7,11.8,12.7,4.5,0,8.7-3,11.5-7.8Z"/>
        <path id="Path_344" data-name="Path 344" class="cls-1" d="M198.3,42.8h25.9v7.8H207V62.4h17.2v7.2H207v4.8h17.2v7.8H198.3Z"/>
        <path id="Path_345" data-name="Path 345" class="cls-1" d="M235.4,42.8a45.121,45.121,0,0,1,8.7-.9c12.1,0,16.9,6.6,16.9,15.1,0,5.4-2.1,10.6-7.8,12.7L265,82.4H253.8l-9-10.6h-.6V82.4h-8.7V42.8Zm8.7,7.3V64h.9c5.4,0,7.5-3,7.5-6.9s-2.1-6.9-7.8-6.9C244.7,50.1,244.1,50.1,244.1,50.1Z"/>
        <path id="Path_346" data-name="Path 346" class="cls-1" d="M299,42.8v7.8H287.5V82.3h-8.4V50.7H267.6V42.9C267.6,42.8,299,42.8,299,42.8Z"/>
        <path id="Path_347" data-name="Path 347" class="cls-1" d="M357.2,68.5c-4.8,9-13.6,14.8-23.2,14.8A25.458,25.458,0,0,1,308.7,58c0-13.9,11.2-25,25.9-25,6.6,0,13.3,2.1,17.8,5.4v9.3a29.83,29.83,0,0,0-17.5-6.3c-10.3,0-17.2,7.5-17.2,16.6,0,9.3,7.5,16.9,16.3,16.9,6.3,0,12.1-4.2,15.4-10.3Z"/>
        <path id="Path_348" data-name="Path 348" class="cls-1" d="M360.2,82.6l19.9-40.4L400,82.6h-9l-2.7-6.3h-16l-2.7,6.3ZM374.9,70h10.3l-5.1-11.2Z"/>
        <path id="Path_349" data-name="Path 349" class="cls-1" d="M407.2,42.8a45.121,45.121,0,0,1,8.7-.9c12.1,0,16.9,6.6,16.9,15.1,0,5.4-2.1,10.6-7.8,12.7l11.8,12.7H425.3l-9-10.6h-.6V82.4h-8.4V42.8Zm8.5,7.3V64h.9c5.4,0,7.5-3,7.5-6.9s-2.1-6.9-7.8-6.9C416.3,50.1,415.7,50.1,415.7,50.1Z"/>
        <path id="Path_350" data-name="Path 350" class="cls-1" d="M443.7,42.8h25.9v7.8H452.4V62.4h17.2v7.2H452.4v4.8h17.2v7.8H443.7V42.8Z"/>
      </g>
      <path id="Path_351" data-name="Path 351" class="cls-1" d="M84.6,65.5V60.3H79.2V54.9H74.1v5.4H68.9v5.2h5.2v5.1h5.1V65.5Z"/>
    </g>
    <g id="Group_99" data-name="Group 99">
      <g id="Group_98" data-name="Group 98">
        <path id="Path_352" data-name="Path 352" class="cls-1" d="M504,11.8c14.2.3,25.9,5.1,35.9,15.1,9.6,9.6,14.5,21.7,14.8,35.6h12.1C567,26.6,535.3-1.5,504,0Zm41,50.6c1.2-21.4-19-42.5-41.3-41V33.1c16,.6,28.6,12.1,29.5,29.2C537.1,62.4,541.1,62.4,545,62.4Z"/>
      </g>
      <path id="Path_353" data-name="Path 353" class="cls-1" d="M524.5,69.1V56.4H510.9V43.2H498.3V56.4H485V69.1h13.3V82.3h12.6V69.1Z"/>
    </g>
  </g>
</svg>
